<svg width="476" height="396" viewBox="0 0 476 396" fill="none" xmlns="http://www.w3.org/2000/svg">
<g clip-path="url(#clip0_105_123)">
<circle cx="370.07" cy="145.65" r="78.9585" stroke="#8080C2" stroke-width="1.5"/>
<path d="M349.447 94.4842C351.779 94.4842 353.67 92.5937 353.67 90.2616C353.67 87.9295 351.779 86.0389 349.447 86.0389C347.115 86.0389 345.224 87.9295 345.224 90.2616C345.224 92.5937 347.115 94.4842 349.447 94.4842Z" fill="#8080C2"/>
<path d="M384.762 21.7625H107.657C101.658 21.7625 96.7948 26.6257 96.7948 32.6246V177.443C96.7948 183.442 101.658 188.306 107.657 188.306H384.762C390.761 188.306 395.625 183.442 395.625 177.443V32.6246C395.625 26.6257 390.761 21.7625 384.762 21.7625Z" fill="black"/>
<path d="M401.68 16.1278H90.7391V194.443H401.68V16.1278Z" fill="#CED7F7"/>
<g opacity="0.7">
<path fill-rule="evenodd" clip-rule="evenodd" d="M129.398 15.9278H90.5392V51.5962V51.9962V87.251V87.6646V122.919V123.319V158.588V158.988V194.656H129.398H129.812H168.271H168.671H207.144H207.544H246.003H246.416H284.875H285.276H323.735H324.148H362.607H363.007H401.88V158.988V158.588V123.319V122.919V87.6646V87.251V51.9962V51.5962V15.9278H363.007H362.607H324.148H323.735H285.276H284.875H246.416H246.003H207.544H207.144H168.671H168.271H129.812H129.398ZM401.48 158.588V123.319H363.007L363.007 158.588H401.48ZM362.607 158.588L362.607 123.319H324.148V158.588H362.607ZM401.48 158.988L363.007 158.988L363.007 194.256H401.48V158.988ZM362.607 158.988H324.148V194.256H362.607L362.607 158.988ZM285.276 158.988H323.735V194.256H285.275L285.276 158.988ZM285.275 158.588H323.735V123.319H285.276L285.275 158.588ZM284.876 194.256L284.875 158.988H246.416V194.256H284.876ZM284.876 158.588H246.416V123.319H284.875L284.876 158.588ZM207.544 158.988H246.003V194.256H207.544L207.544 158.988ZM207.544 158.588H246.003V123.319H207.544L207.544 158.588ZM207.144 194.256L207.144 158.988H168.671L168.671 194.256H207.144ZM207.144 158.588H168.671L168.671 123.319H207.144L207.144 158.588ZM168.271 158.988L168.271 194.256H129.812V158.988H168.271ZM129.812 158.588H168.271L168.271 123.319H129.812V158.588ZM129.398 158.988L90.9392 158.988V194.256H129.398V158.988ZM129.398 158.588H90.9392V123.319H129.398V158.588ZM401.48 122.919V87.6646H363.007L363.007 122.919H401.48ZM362.607 122.919L362.607 87.6646H324.148V122.919H362.607ZM285.275 122.919H323.735V87.6646H285.276L285.275 122.919ZM284.876 122.919H246.416V87.6646H284.875L284.876 122.919ZM207.544 122.919H246.003V87.6646H207.544L207.544 122.919ZM207.144 122.919H168.671L168.671 87.6646H207.144L207.144 122.919ZM129.812 122.919H168.271L168.271 87.6646H129.812V122.919ZM129.398 122.919H90.9392V87.6646H129.398V122.919ZM401.48 87.251V51.9962L363.007 51.9962V87.251H401.48ZM362.607 87.251L362.607 51.9962H324.148V87.251H362.607ZM323.735 51.9962V87.251H285.276V51.9962H323.735ZM284.876 87.251L284.875 51.9962H246.416V87.251H284.876ZM246.003 51.9962V87.251H207.544V51.9962H246.003ZM207.144 87.251L207.144 51.9962H168.671V87.251H207.144ZM168.271 51.9962L168.271 87.251H129.812V51.9962H168.271ZM129.398 87.251V51.9962L90.9392 51.9962V87.251H129.398ZM401.48 51.5962V16.3278H363.007V51.5962H401.48ZM362.607 51.5962H324.148V16.3278H362.607V51.5962ZM285.275 51.5962H323.735V16.3278H285.275V51.5962ZM284.876 51.5962H246.416V16.3278H284.876V51.5962ZM207.544 51.5962H246.003V16.3278H207.544V51.5962ZM207.144 51.5962H168.671V16.3278H207.144V51.5962ZM129.812 51.5962H168.271V16.3278H129.812V51.5962ZM129.398 51.5962H90.9392V16.3278H129.398V51.5962Z" fill="#6C81E9"/>
</g>
<path d="M247.14 192.555V189.338" stroke="#3A3836" stroke-width="1.8" stroke-linecap="round" stroke-linejoin="round"/>
<path d="M227.914 372.608H227.934" stroke="#3A3836" stroke-width="1.8" stroke-linecap="round" stroke-linejoin="round"/>
<path d="M44.0186 393.626L241.899 393.3L233.033 247.667H46.8563L44.3173 378.202L38.9405 376.953L36.2657 382.927L36.4151 393.64L44.0186 393.626Z" fill="white"/>
<path d="M47.576 372.608C41.2624 372.608 36.1708 377.727 36.1708 384.013V394.278H239.292" stroke="#3A3836" stroke-width="1.8" stroke-linecap="round" stroke-linejoin="round"/>
<path d="M47.671 372.608V238.353" stroke="#3A3836" stroke-width="1.8" stroke-linecap="round" stroke-linejoin="round"/>
<path d="M227.941 253.994V372.608C234.255 372.635 239.292 377.727 239.292 384.013V394.278H258.504V384.013C258.504 377.727 253.413 372.608 247.126 372.608V192.555C247.126 195.081 246.787 197.674 246.04 200.268L233.712 243.363C232.571 247.395 230.575 250.98 227.941 253.994V253.994Z" fill="white"/>
<path d="M227.941 253.994V372.608C234.255 372.635 239.292 377.727 239.292 384.013V394.278H258.504V384.013C258.504 377.727 253.413 372.608 247.126 372.608V192.555C247.126 195.081 246.787 197.674 246.04 200.268L233.712 243.363C232.571 247.395 230.575 250.98 227.941 253.994V253.994Z" stroke="#3A3836" stroke-width="1.8" stroke-linecap="round" stroke-linejoin="round"/>
<path d="M75.6002 263.594H206.882C215.178 263.594 222.795 259.955 227.941 253.981C230.589 250.966 232.571 247.382 233.711 243.349L246.04 200.254C246.787 197.661 247.126 195.067 247.126 192.542C247.126 177.647 235.042 164.667 219.197 164.667H87.9287C75.4644 164.667 64.5209 172.922 61.0993 184.898L48.7708 227.993C43.6792 245.82 57.0668 263.58 75.6002 263.58V263.594Z" fill="white"/>
<path d="M75.6002 263.594H206.882C215.178 263.594 222.795 259.955 227.941 253.981C230.589 250.966 232.571 247.382 233.711 243.349L246.04 200.254C246.787 197.661 247.126 195.067 247.126 192.542C247.126 177.647 235.042 164.667 219.197 164.667H87.9287C75.4644 164.667 64.5209 172.922 61.0993 184.898L48.7708 227.993C43.6792 245.82 57.0668 263.58 75.6002 263.58V263.594Z" stroke="#3A3836" stroke-width="1.8" stroke-linecap="round" stroke-linejoin="round"/>
<path d="M206.882 254.863C215.395 254.863 222.985 249.147 225.32 240.96L237.649 197.864C239.319 192.026 238.178 185.902 234.526 181.042C230.874 176.194 225.293 173.411 219.211 173.411H87.9286C79.4154 173.411 71.8255 179.127 69.4902 187.314L57.1617 230.41C55.4917 236.248 56.6322 242.372 60.2846 247.232C63.9369 252.08 69.5173 254.863 75.6001 254.863H206.882V254.863Z" fill="#FFDD81"/>
<path d="M195.246 250.369C201.478 250.369 207.045 246.173 208.756 240.186L217.785 208.618C219.007 204.341 218.179 199.847 215.49 196.303C212.815 192.745 208.729 190.709 204.275 190.709H108.091C101.859 190.709 96.2924 194.904 94.5816 200.892L85.5525 232.46C84.3305 236.737 85.1587 241.231 87.8471 244.775C90.5219 248.332 94.6088 250.369 99.0622 250.369H195.246Z" fill="white" stroke="#3A3836" stroke-width="1.8" stroke-linecap="round" stroke-linejoin="round"/>
<path d="M195.246 250.369C201.478 250.369 207.045 246.173 208.756 240.186L217.785 208.618C219.007 204.341 218.179 199.847 215.49 196.303C212.815 192.745 208.729 190.709 204.275 190.709H108.091C101.859 190.709 96.2924 194.904 94.5816 200.892L85.5525 232.46C84.3305 236.737 85.1587 241.231 87.8471 244.775C90.5219 248.332 94.6088 250.369 99.0622 250.369H195.246Z" fill="white" stroke="#3A3836" stroke-width="1.8" stroke-linecap="round" stroke-linejoin="round"/>
<path d="M194.608 249.866C200.745 249.866 206.217 245.712 207.9 239.751L216.794 208.4C218.002 204.151 217.174 199.697 214.54 196.167C211.906 192.637 207.873 190.614 203.501 190.614H108.838C102.701 190.614 97.2293 194.769 95.5457 200.729L86.6523 232.08C85.4439 236.33 86.2722 240.783 88.9062 244.313C91.5403 247.843 95.5728 249.866 99.9448 249.866H194.594H194.608Z" fill="#E4E4E4"/>
<path d="M193.114 248.237C199.347 248.237 204.913 244.042 206.624 238.054L215.653 206.486C216.875 202.209 216.047 197.715 213.359 194.171C210.684 190.614 206.597 188.577 202.144 188.577H105.96C99.7276 188.577 94.1608 192.773 92.45 198.76L83.4209 230.328C82.1989 234.605 83.0271 239.099 85.7155 242.643C88.3903 246.201 92.4772 248.237 96.9306 248.237H193.114V248.237Z" stroke="#3A3836" stroke-width="0.5" stroke-linecap="round" stroke-linejoin="round"/>
<path d="M190.983 246.105C197.215 246.105 202.782 241.91 204.492 235.922L213.522 204.354C214.744 200.077 213.915 195.583 211.227 192.039C208.552 188.482 204.465 186.445 200.012 186.445H103.828C97.5959 186.445 92.0291 190.641 90.3183 196.629L81.2892 228.197C80.0672 232.473 80.8954 236.968 83.5838 240.511C86.2586 244.069 90.3455 246.105 94.7989 246.105H190.983Z" stroke="#3A3836" stroke-width="0.5" stroke-linecap="round" stroke-linejoin="round"/>
<path d="M190.983 243.974C197.215 243.974 202.782 239.778 204.492 233.791L213.522 202.223C214.744 197.946 213.915 193.452 211.227 189.908C208.552 186.35 204.465 184.314 200.012 184.314H103.828C97.5959 184.314 92.0291 188.509 90.3183 194.497L81.2892 226.065C80.0672 230.342 80.8954 234.836 83.5838 238.38C86.2586 241.937 90.3455 243.974 94.7989 243.974H190.983Z" fill="white" stroke="#3A3836" stroke-width="1.8" stroke-linecap="round" stroke-linejoin="round"/>
<path d="M190.983 243.974C197.215 243.974 202.782 239.778 204.492 233.791L213.522 202.223C214.744 197.946 213.915 193.452 211.227 189.908C208.552 186.35 204.465 184.314 200.012 184.314H103.828C97.5959 184.314 92.0291 188.509 90.3183 194.497L81.2892 226.065C80.0672 230.342 80.8954 234.836 83.5838 238.38C86.2586 241.937 90.3455 243.974 94.7989 243.974H190.983Z" stroke="#3A3836" stroke-width="1.8" stroke-linecap="round" stroke-linejoin="round"/>
<path d="M227.914 372.608H227.934" stroke="#3A3836" stroke-width="1.8" stroke-linecap="round" stroke-linejoin="round"/>
<path d="M159.252 204.232H198.301" stroke="#3A3836" stroke-width="1.8" stroke-linecap="round" stroke-linejoin="round"/>
<path d="M155.002 214.877H194.051" stroke="#3A3836" stroke-width="1.8" stroke-linecap="round" stroke-linejoin="round"/>
<path d="M130.942 227.477L106.109 225.264L108.838 190.179L141.75 191.483L130.942 227.477Z" fill="url(#paint0_linear_105_123)" stroke="#3A3836" stroke-width="1.8" stroke-linecap="round" stroke-linejoin="round"/>
<path d="M146.584 208.112L146.732 207.83" stroke="#3A3836" stroke-width="1.8" stroke-linecap="round" stroke-linejoin="round"/>
<path d="M26.6664 216.099V277.483C26.6664 282.887 31.052 287.286 36.4694 287.286H39.4294V375.677C39.4294 380.605 41.3981 385.33 44.8876 388.82C48.377 392.309 53.1156 394.278 58.0307 394.278C62.9865 394.278 67.7115 392.309 71.1738 388.82C74.6633 385.33 76.632 380.592 76.632 375.677L78.5736 327.327C78.6415 323.416 82.8913 323.715 84.9008 323.715C85.8919 323.715 86.8424 324.109 87.5484 324.788C88.2545 325.467 88.6889 326.39 88.7432 327.354L95.7357 373.966C97.1885 385.928 104.466 393.613 115.315 393.762C126.326 393.884 133.006 382.628 133.02 371.631L126.543 259.805C139.211 266.132 155.586 262.616 163.325 249.513C163.664 248.93 164.004 248.305 164.316 247.667L175.423 225.372C177.391 222.63 178.532 219.263 178.532 215.637C178.532 206.296 170.983 198.747 161.641 198.747C155.599 198.747 150.291 201.924 147.331 206.73L146.869 207.559C146.815 207.654 146.774 207.735 146.72 207.83L146.543 208.115L138.926 221.747C134.663 214.687 128.756 205.345 124.126 199.494C119.469 193.574 112.898 191.13 108.091 190.098C121.411 180.756 130.101 165.278 130.101 147.763C130.101 119.209 106.951 96.0321 78.37 96.0321C70.5357 96.0321 63.0816 97.7836 56.4421 100.906C55.4917 100.418 52.7897 102.984 51.6492 102.984C47.7389 102.984 47.3315 107.139 46.2046 107.206V107.274C34.297 116.738 26.6528 131.347 26.6528 147.749C26.6528 165.916 36.0485 181.911 50.21 191.157C44.9147 192.691 38.7369 196.547 35.6548 206.323H35.6005C30.5768 206.73 26.6528 210.953 26.6528 216.072L26.6664 216.099Z" fill="white"/>
<path d="M93.9163 197.117C93.9163 197.117 90.2232 201.91 89.748 203.024C89.2728 204.137 58.0035 204.585 55.8583 203.2C55.8583 203.2 60.1081 197.348 61.8867 196.819C61.8867 196.819 78.4786 202.657 93.9163 197.117Z" fill="#E4E4E4"/>
<path d="M78.3834 199.507C106.954 199.507 130.114 176.346 130.114 147.776C130.114 119.206 106.954 96.0457 78.3834 96.0457C49.8133 96.0457 26.6527 119.206 26.6527 147.776C26.6527 176.346 49.8133 199.507 78.3834 199.507Z" stroke="#3A3836" stroke-width="1.8" stroke-linecap="round" stroke-linejoin="round"/>
<path d="M33.1158 125.591C37.0226 125.591 40.1897 122.423 40.1897 118.517C40.1897 114.61 37.0226 111.443 33.1158 111.443C29.209 111.443 26.0419 114.61 26.0419 118.517C26.0419 122.423 29.209 125.591 33.1158 125.591Z" fill="#F48756" stroke="#3A3836" stroke-width="1.8" stroke-linecap="round" stroke-linejoin="round"/>
<path d="M38.3568 123.948L42.3342 127.586" stroke="#3A3836" stroke-width="1.8" stroke-linecap="round" stroke-linejoin="round"/>
<path d="M144.629 231.333C144.629 231.333 132.382 209.908 124.154 199.507C119.497 193.587 112.898 191.143 108.091 190.111" stroke="#3A3836" stroke-width="1.8" stroke-linecap="round" stroke-linejoin="round"/>
<path d="M146.57 208.115C146.801 207.627 147.059 207.165 147.344 206.73C150.304 201.938 155.613 198.747 161.641 198.747C170.969 198.747 178.532 206.296 178.532 215.637C178.532 219.263 177.378 222.616 175.436 225.372" stroke="#3A3836" stroke-width="1.8" stroke-linecap="round" stroke-linejoin="round"/>
<path d="M175.436 225.359L164.316 247.667C164.004 248.291 163.665 248.916 163.312 249.513C153.441 266.255 129.463 267.314 117.134 252.283L104.819 237.28" stroke="#3A3836" stroke-width="1.8" stroke-linecap="round" stroke-linejoin="round"/>
<path d="M147.344 206.73L146.57 208.115L138.953 221.747" stroke="#3A3836" stroke-width="1.8" stroke-linecap="round" stroke-linejoin="round"/>
<path d="M50.5359 191.442C45.0098 192.854 38.8185 195.705 35.6141 206.337" stroke="#3A3836" stroke-width="1.8" stroke-linecap="round" stroke-linejoin="round"/>
<path d="M105.987 104.056L104.249 108.496C100.488 118.096 104.032 127.872 109.775 136.439C111.934 139.671 120.298 150.465 130.196 151.51" stroke="#3A3836" stroke-width="1.8" stroke-linecap="round" stroke-linejoin="round"/>
<path d="M39.4294 287.286V375.663C39.4294 380.592 41.3982 385.317 44.8876 388.82C48.3771 392.309 53.1157 394.278 58.0443 394.278C63.0002 394.278 67.7252 392.309 71.201 388.82C74.6905 385.33 76.6592 380.592 76.6592 375.663L78.6008 327.313C78.6687 323.403 82.9185 323.702 84.928 323.702C85.9192 323.702 86.8696 324.095 87.5756 324.774C88.2817 325.453 88.7161 326.376 88.7705 327.34L95.7629 373.952C97.2157 385.914 104.493 393.599 115.342 393.748C126.353 393.871 133.033 382.615 133.047 371.617L126.571 259.792" stroke="#3A3836" stroke-width="1.8" stroke-linecap="round" stroke-linejoin="round"/>
<path d="M115.274 250.043C112.002 252.935 107.589 255.067 101.859 254.51" stroke="#3A3836" stroke-width="1.8" stroke-linecap="round" stroke-linejoin="round"/>
<path d="M121.235 256.37C118.057 260.348 111.798 265.739 101.846 264.503" stroke="#3A3836" stroke-width="1.8" stroke-linecap="round" stroke-linejoin="round"/>
<path d="M98.4377 208.699C101.085 197.593 114.446 193.126 114.446 193.126" stroke="#3A3836" stroke-width="1.8" stroke-linecap="round" stroke-linejoin="round"/>
<path d="M88.5532 206.296C89.5987 202.345 91.7575 199.303 93.9164 197.131" stroke="#3A3836" stroke-width="1.8" stroke-linecap="round" stroke-linejoin="round"/>
<path d="M54.229 206.296C55.9262 202.1 59.1577 199.018 62.2126 196.9" stroke="#3A3836" stroke-width="1.8" stroke-linecap="round" stroke-linejoin="round"/>
<path d="M53.7673 193.289C51.1468 194.864 45.5121 199.032 43.5841 206.296" stroke="#3A3836" stroke-width="1.8" stroke-linecap="round" stroke-linejoin="round"/>
<path d="M92.0427 206.309H36.4695C31.0521 206.309 26.6665 210.695 26.6665 216.112V277.483C26.6665 282.901 31.0521 287.286 36.4695 287.286H92.0563C97.4738 287.286 101.859 282.901 101.859 277.483V216.112C101.859 210.695 97.4738 206.309 92.0563 206.309H92.0427Z" stroke="#3A3836" stroke-width="1.8" stroke-linecap="round" stroke-linejoin="round"/>
<path d="M80.8953 207.165V224.734C80.8953 226.282 80.5966 227.83 79.9992 229.269C79.4018 230.708 78.5328 232.012 77.433 233.111C76.3332 234.211 75.0298 235.08 73.5906 235.678C72.1513 236.275 70.6171 236.574 69.0556 236.574H27.4539" stroke="#3A3836" stroke-width="1.8" stroke-linecap="round" stroke-linejoin="round"/>
<path d="M27.2368 245.046H36.8633C38.6827 245.046 40.1627 246.947 40.1627 249.405C40.1627 251.862 38.6963 253.763 36.8633 253.763H27.2368" stroke="#3A3836" stroke-width="1.8" stroke-linecap="round" stroke-linejoin="round"/>
<path d="M27.2368 261.652H79.5785C81.3979 261.652 82.8779 263.607 82.8779 266.01C82.8779 268.413 81.3979 270.369 79.5785 270.369H27.2368" stroke="#3A3836" stroke-width="1.8" stroke-linecap="round" stroke-linejoin="round"/>
<path d="M61.8868 253.274C64.2085 253.274 66.0822 251.387 66.0822 249.079C66.0822 246.757 64.195 244.883 61.8868 244.883C59.5786 244.883 57.6913 246.771 57.6913 249.079C57.6913 251.401 59.5786 253.274 61.8868 253.274Z" fill="#F48756" stroke="#3A3836" stroke-width="1.8" stroke-linecap="round" stroke-linejoin="round"/>
<path d="M49.1781 253.274C51.4999 253.274 53.3736 251.387 53.3736 249.079C53.3736 246.757 51.4863 244.883 49.1781 244.883C46.87 244.883 44.9827 246.771 44.9827 249.079C44.9827 251.401 46.87 253.274 49.1781 253.274Z" fill="#F48756" stroke="#3A3836" stroke-width="1.8" stroke-linecap="round" stroke-linejoin="round"/>
<path d="M39.1986 394.278H1.28992" stroke="#3A3836" stroke-width="1.8" stroke-linecap="round" stroke-linejoin="round"/>
<path d="M95.8156 161.419C99.088 159.327 99.4678 154.076 96.664 149.692C93.8602 145.308 88.9344 143.45 85.6621 145.543C82.3897 147.635 82.0099 152.886 84.8137 157.27C87.6175 161.655 92.5432 163.512 95.8156 161.419Z" stroke="#3A3836" stroke-width="1.8" stroke-linecap="round" stroke-linejoin="round"/>
<path d="M152.178 184.463L141.234 217.932" stroke="#3A3836" stroke-width="1.8" stroke-linecap="round" stroke-linejoin="round"/>
<path d="M161.384 195.719H200.433" stroke="#3A3836" stroke-width="1.8" stroke-linecap="round" stroke-linejoin="round"/>
<path d="M147.331 126.337C147.331 128.741 149.272 130.682 151.676 130.682H184.235V121.992" fill="white"/>
<path d="M147.331 126.337C147.331 128.741 149.272 130.682 151.676 130.682H184.235V121.992" stroke="#3A3836" stroke-width="1.8" stroke-linecap="round" stroke-linejoin="round"/>
<path d="M183.922 119.141H147.833V126.215H183.922V119.141Z" fill="white"/>
<path d="M151.676 87.2067C149.272 87.2067 147.331 89.1483 147.331 91.5515V126.337C147.331 123.934 149.272 121.993 151.676 121.993H184.235V87.2067H151.676Z" fill="white" stroke="#3A3836" stroke-width="1.8" stroke-linecap="round" stroke-linejoin="round"/>
<path d="M147.331 126.337H184.235" stroke="#3A3836" stroke-width="1.8" stroke-linecap="round" stroke-linejoin="round"/>
<path d="M166.122 93.8461C161.777 93.8461 158.22 97.4577 158.22 101.87C158.22 104.817 159.795 107.356 162.171 108.822V113.9C162.171 114.701 162.7 115.244 163.488 115.244H168.756C169.544 115.244 170.073 114.715 170.073 113.9V108.822C172.449 107.342 174.024 104.817 174.024 101.87C174.024 97.4577 170.48 93.8461 166.122 93.8461Z" fill="url(#paint1_linear_105_123)" stroke="#3A3836" stroke-width="1.8" stroke-linecap="round" stroke-linejoin="round"/>
<path d="M166.122 93.8461C161.777 93.8461 158.22 97.4577 158.22 101.87C158.22 104.817 159.795 107.356 162.171 108.822V113.9C162.171 114.701 162.7 115.244 163.488 115.244H168.756C169.544 115.244 170.073 114.715 170.073 113.9V108.822C172.449 107.342 174.024 104.817 174.024 101.87C174.024 97.4577 170.48 93.8461 166.122 93.8461Z" stroke="#3A3836" stroke-width="1.8" stroke-linecap="round" stroke-linejoin="round"/>
<path d="M162.456 111.361H169.883" stroke="#3A3836" stroke-width="1.8" stroke-linecap="round"/>
<path d="M241.98 91.6456V87.2067" stroke="#3A3836" stroke-width="1.8" stroke-linecap="round" stroke-linejoin="round"/>
<path d="M256.468 91.6456V87.2067" stroke="#3A3836" stroke-width="1.8" stroke-linecap="round" stroke-linejoin="round"/>
<path d="M249.312 91.6456V87.2067" stroke="#3A3836" stroke-width="1.8" stroke-linecap="round" stroke-linejoin="round"/>
<path d="M231.932 116.181H227.493" stroke="#3A3836" stroke-width="1.8" stroke-linecap="round" stroke-linejoin="round"/>
<path d="M231.932 101.694H227.493" stroke="#3A3836" stroke-width="1.8" stroke-linecap="round" stroke-linejoin="round"/>
<path d="M231.932 109.039H227.493" stroke="#3A3836" stroke-width="1.8" stroke-linecap="round" stroke-linejoin="round"/>
<path d="M270.954 116.181H266.61" stroke="#3A3836" stroke-width="1.8" stroke-linecap="round" stroke-linejoin="round"/>
<path d="M270.954 101.694H266.61" stroke="#3A3836" stroke-width="1.8" stroke-linecap="round" stroke-linejoin="round"/>
<path d="M270.954 109.039H266.61" stroke="#3A3836" stroke-width="1.8" stroke-linecap="round" stroke-linejoin="round"/>
<path d="M241.98 130.668V126.324" stroke="#3A3836" stroke-width="1.8" stroke-linecap="round" stroke-linejoin="round"/>
<path d="M256.468 130.668V126.324" stroke="#3A3836" stroke-width="1.8" stroke-linecap="round" stroke-linejoin="round"/>
<path d="M249.312 130.668V126.324" stroke="#3A3836" stroke-width="1.8" stroke-linecap="round" stroke-linejoin="round"/>
<path d="M263.419 91.6465H234.784C233.155 91.6465 231.919 92.8821 231.919 94.5114V123.147C231.919 124.776 233.155 126.011 234.784 126.011H263.419C265.049 126.011 266.284 124.776 266.284 123.147V94.5114C266.284 92.8821 264.954 91.6465 263.419 91.6465Z" fill="white"/>
<path d="M263.419 91.6465H234.784C233.155 91.6465 231.919 92.8821 231.919 94.5114V123.147C231.919 124.776 233.155 126.011 234.784 126.011H263.419C265.049 126.011 266.284 124.776 266.284 123.147V94.5114C266.284 92.8821 264.954 91.6465 263.419 91.6465Z" stroke="#3A3836" stroke-width="1.8" stroke-linecap="round" stroke-linejoin="round"/>
<path d="M259.618 99.0463H239.333V119.331H259.618V99.0463Z" fill="url(#paint2_linear_105_123)" stroke="#3A3836" stroke-width="1.8" stroke-linecap="round" stroke-linejoin="round"/>
<path d="M333.113 130.478C343.881 130.478 352.611 121.749 352.611 110.981C352.611 100.213 343.881 91.4836 333.113 91.4836C322.345 91.4836 313.616 100.213 313.616 110.981C313.616 121.749 322.345 130.478 333.113 130.478Z" fill="white"/>
<path d="M333.262 90.9948C344.206 90.9948 353.072 99.861 353.072 110.805C353.072 111.578 353.031 112.339 352.936 113.086" stroke="#3A3836" stroke-width="1.8" stroke-linecap="round" stroke-linejoin="round"/>
<path d="M323.704 128.17C326.542 129.732 329.787 130.614 333.249 130.614C339.929 130.614 345.849 127.301 349.433 122.237" stroke="#3A3836" stroke-width="1.8" stroke-linecap="round" stroke-linejoin="round"/>
<path d="M324.111 93.2351C317.77 96.5345 313.439 103.174 313.439 110.805C313.439 114.742 314.58 118.394 316.562 121.477" stroke="#3A3836" stroke-width="1.8" stroke-linecap="round" stroke-linejoin="round"/>
<path d="M345.604 111.253L342.631 110.18C342.604 109.392 342.468 108.605 342.224 107.858L344.668 105.849C344.749 105.781 344.803 105.699 344.803 105.604C344.831 105.509 344.803 105.414 344.749 105.333L343.052 102.658C342.998 102.576 342.916 102.522 342.821 102.481C342.726 102.454 342.631 102.468 342.536 102.509L339.671 103.853C339.101 103.31 338.436 102.862 337.743 102.495L338.042 99.345C338.069 99.25 338.028 99.1549 337.974 99.0735C337.92 99.0056 337.838 98.9377 337.743 98.9105L334.647 98.2181C334.552 98.1909 334.457 98.2181 334.376 98.2588C334.294 98.2995 334.226 98.381 334.199 98.4761L333.113 101.45C332.326 101.477 331.538 101.612 330.791 101.857L328.782 99.4129C328.714 99.3314 328.632 99.2771 328.537 99.2771C328.442 99.2771 328.347 99.2771 328.266 99.3314L325.578 101.015C325.496 101.069 325.442 101.151 325.401 101.246C325.374 101.341 325.387 101.436 325.428 101.531L326.772 104.396C326.229 104.966 325.781 105.631 325.415 106.324L322.265 106.012C322.17 105.984 322.074 106.025 321.993 106.08C321.925 106.134 321.857 106.215 321.83 106.31L321.138 109.406C321.11 109.501 321.138 109.596 321.178 109.678C321.219 109.759 321.301 109.827 321.396 109.854L324.369 110.927C324.396 111.714 324.532 112.502 324.776 113.249L322.332 115.258C322.251 115.326 322.197 115.407 322.197 115.502C322.17 115.597 322.197 115.692 322.251 115.774L323.948 118.462C324.003 118.544 324.084 118.598 324.179 118.639C324.274 118.666 324.369 118.652 324.464 118.612L327.329 117.267C327.899 117.811 328.565 118.272 329.257 118.625L328.958 121.775C328.958 121.87 328.972 121.965 329.026 122.047C329.081 122.115 329.162 122.169 329.257 122.21L332.353 122.902C332.448 122.929 332.543 122.902 332.624 122.861C332.706 122.821 332.774 122.739 332.801 122.644L333.873 119.671C334.661 119.644 335.448 119.508 336.195 119.263L338.205 121.707C338.273 121.789 338.354 121.843 338.449 121.843C338.544 121.87 338.639 121.843 338.721 121.789L341.409 120.092C341.49 120.037 341.545 119.956 341.586 119.861C341.613 119.766 341.599 119.671 341.558 119.576L340.214 116.711C340.757 116.141 341.219 115.475 341.572 114.783L344.722 115.081C344.817 115.081 344.912 115.068 344.993 115.014C345.061 114.959 345.116 114.878 345.143 114.783L345.835 111.687C345.862 111.592 345.835 111.497 345.795 111.416C345.754 111.334 345.672 111.266 345.577 111.239H345.591L345.604 111.253ZM332.543 114.837C331.701 114.647 330.927 114.213 330.343 113.588C329.746 112.963 329.352 112.176 329.203 111.32C329.053 110.465 329.162 109.596 329.515 108.809C329.854 108.021 330.452 107.342 331.171 106.881C331.891 106.419 332.746 106.175 333.615 106.202C334.471 106.229 335.313 106.5 336.019 107.003C336.725 107.505 337.268 108.198 337.58 108.999C337.892 109.8 337.96 110.682 337.77 111.524C337.512 112.651 336.82 113.642 335.842 114.253C334.865 114.878 333.67 115.068 332.556 114.824H332.543V114.837Z" fill="url(#paint3_linear_105_123)" stroke="#3A3836" stroke-width="1.8" stroke-linecap="round" stroke-linejoin="round"/>
<path d="M318.381 117.322L317.526 122.617L312.231 121.775" stroke="#3A3836" stroke-width="1.8" stroke-linecap="round" stroke-linejoin="round"/>
<path d="M344.912 122.169L350.18 121.151L351.199 126.419" stroke="#3A3836" stroke-width="1.8" stroke-linecap="round" stroke-linejoin="round"/>
<path d="M335.353 94.783L331.688 90.8726L335.598 87.2067" stroke="#3A3836" stroke-width="1.8" stroke-linecap="round" stroke-linejoin="round"/>
<path fill-rule="evenodd" clip-rule="evenodd" d="M142.47 74.1586C142.918 74.145 144.154 73.6698 144.588 73.439L144.574 73.4526C145.104 73.181 145.701 72.5836 145.688 71.9319C145.671 70.9574 143.997 70.5455 142.685 70.2226C141.84 70.0146 141.145 69.8436 141.139 69.5829C141.126 69.067 142.551 68.7275 142.932 68.7275C143.271 68.714 143.583 68.809 143.583 69.1892C143.583 69.2842 143.56 69.3793 143.536 69.4743C143.512 69.5694 143.488 69.6644 143.488 69.7594C143.502 69.9359 143.583 69.9767 143.746 69.9767C144.181 69.9631 144.588 69.3521 144.588 68.9584C144.574 68.3202 143.556 67.8178 142.986 67.8178C142.063 67.8314 139.972 68.4424 139.999 69.6372C140.023 70.5784 141.585 70.9483 142.888 71.2568C143.822 71.478 144.623 71.6675 144.629 72.0133C144.642 72.3663 143.19 73.0045 142.837 73.0045C142.636 73.0119 142.427 72.9138 142.235 72.8233C142.076 72.7483 141.928 72.6786 141.805 72.6786C141.574 72.6922 141.289 72.8687 141.289 73.1267C141.302 73.6019 141.995 74.1586 142.47 74.1586ZM151.119 72.8959C150.603 72.9094 150.223 72.5564 150.223 72.0405C150.216 71.5111 150.938 71.4431 151.66 71.3752C152.381 71.3073 153.101 71.2395 153.088 70.7099C153.088 70.5114 152.702 70.5169 152.532 70.5193L152.531 70.5194C152.515 70.5196 152.502 70.5198 152.49 70.5198C152.216 70.5262 151.944 70.5535 151.674 70.5808L151.674 70.5808L151.674 70.5808C151.37 70.6115 151.068 70.642 150.766 70.642C150.576 70.6555 150.195 70.642 150.195 70.384C150.195 70.2668 150.251 70.1427 150.307 70.0204C150.36 69.9018 150.413 69.7849 150.413 69.678C150.413 69.3792 150.019 69.1077 149.747 69.1077C149.367 69.1077 149.299 69.8002 149.299 70.0717L149.303 70.1013C149.315 70.198 149.327 70.2866 149.327 70.3976C149.312 71.0891 148.443 71.1328 147.642 71.1731C146.948 71.208 146.306 71.2403 146.312 71.6874C146.312 71.9318 146.543 72.2306 146.788 72.2306C146.855 72.2306 146.896 72.217 146.937 72.2034C147.141 72.1219 148.634 71.9454 148.906 71.9454C149.131 71.9381 149.22 72.2467 149.323 72.6036C149.413 72.9127 149.512 73.2582 149.72 73.4661C150.1 73.8463 150.657 73.9549 151.173 73.9549C151.513 73.9413 152.802 73.4797 152.802 73.0859C152.789 72.7465 152.517 72.6107 152.219 72.6107C152.026 72.6174 151.853 72.6856 151.681 72.7536C151.5 72.8248 151.32 72.8959 151.119 72.8959ZM155.993 71.1576C155.609 71.7164 155.624 72.1355 155.644 72.7058V72.7061V72.7063V72.7064C155.648 72.8009 155.651 72.8996 155.653 73.0038C155.653 73.4382 155.558 73.7504 155.07 73.7504C154.676 73.7504 154.499 73.3567 154.486 73.0174C154.486 72.8634 154.516 72.7155 154.547 72.5665C154.581 72.4002 154.615 72.2325 154.608 72.0536C154.592 71.2846 154.332 71.0735 154.109 70.8933C153.947 70.7618 153.805 70.6467 153.794 70.3431C153.794 70.0988 153.943 69.9766 154.187 69.9766C154.456 69.9766 154.495 70.0278 154.608 70.1778C154.637 70.2168 154.672 70.2626 154.717 70.316C154.745 70.3439 154.769 70.396 154.796 70.4516C154.847 70.558 154.904 70.6778 155.002 70.6689C155.145 70.6689 155.339 70.4853 155.564 70.272C155.873 69.9796 156.24 69.6315 156.617 69.6237C156.834 69.6237 157.228 69.9359 157.242 70.2209C157.242 70.2989 156.935 70.4877 156.62 70.6814C156.332 70.8588 156.037 71.0402 155.966 71.144L155.993 71.1576ZM163.314 74.0091L163.339 74.0092H163.312L163.314 74.0091ZM164.058 73.4661C164.058 73.859 163.653 73.995 163.314 74.0091C162.86 74.0057 162.396 73.9081 162.062 73.5747C162.014 73.54 161.891 73.374 161.777 73.2201L161.776 73.2197C161.667 73.0726 161.566 72.9366 161.546 72.9366C161.534 72.9366 161.466 72.995 161.39 73.0604C161.301 73.1359 161.203 73.2207 161.166 73.2353C160.813 73.4661 160.338 73.5204 159.917 73.5204C158.994 73.534 158.329 73.0995 158.301 72.1355C158.301 71.6195 158.654 70.3432 159.17 70.126C159.363 70.0496 159.545 69.9612 159.723 69.8744L159.723 69.8743C160.146 69.668 160.551 69.4702 161.058 69.4607C161.384 69.4607 161.886 69.5829 162.076 69.8409C162.443 69.9088 162.809 70.0174 162.809 70.4654C162.809 70.6984 162.772 70.9345 162.735 71.1723C162.694 71.4332 162.653 71.6961 162.66 71.959C162.683 72.8882 163.133 72.9552 163.517 73.0122C163.8 73.0544 164.047 73.0911 164.058 73.4661ZM160.977 71.5183C161.063 71.4644 161.14 71.4159 161.207 71.4159L161.221 71.4023C161.411 71.4023 161.465 71.4838 161.465 71.6603C161.465 72.1355 160.406 72.4613 160.039 72.4613C159.713 72.4749 159.415 72.3527 159.415 71.9861C159.401 71.4023 160.202 70.5197 160.8 70.5197C160.854 70.5197 160.963 70.5333 160.963 70.6148C160.97 70.7795 160.773 70.9064 160.585 71.0274C160.417 71.1359 160.257 71.2396 160.257 71.3616C160.257 71.5245 160.474 71.6603 160.623 71.6603C160.751 71.6603 160.871 71.5852 160.977 71.5183ZM168.24 71.6563C168.245 72.167 168.624 72.5156 169.136 72.5021C169.338 72.5021 169.518 72.4311 169.698 72.3598C169.871 72.2918 170.044 72.2236 170.236 72.217C170.535 72.217 170.806 72.3527 170.82 72.7058C170.82 73.0995 169.53 73.5611 169.191 73.5747C168.675 73.5747 168.118 73.4661 167.738 73.0859C167.53 72.878 167.43 72.5325 167.341 72.2234C167.238 71.8665 167.149 71.558 166.923 71.5652C166.652 71.5652 165.158 71.7417 164.954 71.8232C164.914 71.8368 164.873 71.8504 164.805 71.8504C164.561 71.8504 164.33 71.5517 164.33 71.3073C164.324 70.8601 164.966 70.8278 165.659 70.7929C166.46 70.7526 167.33 70.7089 167.344 70.0174C167.344 69.8952 167.331 69.8001 167.317 69.7051C167.317 69.4335 167.385 68.7411 167.765 68.7411C168.037 68.7411 168.43 69.0126 168.43 69.3113C168.43 69.4168 168.379 69.5286 168.326 69.6437C168.271 69.7658 168.213 69.8916 168.213 70.0174C168.213 70.2754 168.593 70.2889 168.783 70.2754C169.085 70.2754 169.387 70.2449 169.692 70.2142L169.692 70.2142L169.692 70.2142C169.962 70.1869 170.233 70.1595 170.508 70.1532C170.514 70.1532 170.521 70.1531 170.528 70.153L170.548 70.1527L170.55 70.1527C170.72 70.1503 171.105 70.1448 171.105 70.3432C171.119 70.8729 170.399 70.9407 169.677 71.0086C168.964 71.0757 168.25 71.143 168.24 71.6563ZM175.355 73.4389C176.36 73.4118 177.378 73.1674 178.342 72.9094L178.356 72.923C178.6 72.8823 179.129 72.6243 179.129 72.312C179.117 72.1063 178.685 72.1163 178.485 72.1209L178.453 72.1216L178.423 72.1219C178.187 72.1343 177.929 72.1922 177.699 72.2436L177.699 72.2436L177.636 72.2577C177.201 72.3392 176.767 72.3935 176.319 72.4342C176.219 72.4342 176.115 72.4408 176.01 72.4474C175.901 72.4543 175.791 72.4614 175.681 72.4614C175.355 72.4749 174.051 72.3799 174.051 71.9454C174.047 71.8166 174.293 71.7401 174.624 71.6369C175.304 71.4249 176.346 71.1003 176.319 69.9767C176.305 69.3249 175.803 69.067 175.206 69.067C174.092 69.0941 173.4 69.8816 172.965 70.832C172.897 70.9814 172.789 71.1986 172.585 71.1986C172.547 71.1986 172.506 71.1974 172.462 71.1962C172.146 71.1871 171.716 71.1747 171.716 71.5924C171.73 72.1083 172.409 72.1491 172.789 72.1491C173.277 72.9637 174.432 73.4525 175.355 73.4389ZM173.997 70.8999C173.997 70.6148 174.499 70.0989 174.839 70.0989C174.975 70.0853 175.328 70.1396 175.328 70.3161C175.328 70.5876 174.404 70.995 174.146 70.995C174.079 70.995 173.997 70.9678 173.997 70.8999ZM183.909 71.1851C183.916 71.6331 183.964 72.0811 184.012 72.5292L184.012 72.5298C184.056 72.9369 184.1 73.3441 184.112 73.7512C184.126 74.6609 183.8 76.9556 182.592 76.9827C181.723 76.9963 180.732 76.3853 180.189 75.7607C180.173 75.7397 180.152 75.7133 180.129 75.6836L180.129 75.6835C180.046 75.5794 179.931 75.4349 179.931 75.3398C179.931 74.9461 180.419 74.6066 180.786 74.593C181.166 74.593 181.329 74.8239 181.451 75.1633C181.56 75.4349 181.967 75.8693 182.279 75.8558C183.061 75.8432 182.988 73.9222 182.963 73.2566L182.963 73.2539C182.961 73.2038 182.959 73.161 182.958 73.1267C182.958 72.828 182.958 72.0133 182.51 72.0269H182.103C181.315 72.0676 179.998 71.9726 179.971 70.9135C179.944 69.7458 181.465 69.2706 182.415 69.2435C182.945 69.2435 184.112 69.3249 184.14 70.0717C184.14 70.2585 184.081 70.4289 184.021 70.6023C183.958 70.7817 183.895 70.9643 183.895 71.1715L183.909 71.1851ZM182.235 70.289C182.05 70.2929 181.125 70.5887 181.125 70.7506C181.125 70.9407 181.614 71.0086 181.736 70.995C182.062 70.995 182.497 70.8728 182.497 70.4519C182.497 70.307 182.343 70.2899 182.235 70.289ZM188.788 75.4763C188.83 75.476 188.869 75.4756 188.905 75.4756C190.249 75.4484 190.711 74.8103 190.684 73.5612C190.677 72.988 190.547 72.4394 190.418 71.8923C190.293 71.3635 190.168 70.8361 190.154 70.289C190.154 70.2529 190.155 70.2144 190.156 70.1743C190.161 69.762 190.169 69.1756 189.625 69.1756C189.236 69.1877 189.152 69.4173 189.041 69.7183C189.028 69.7537 189.015 69.7902 189 69.8273C188.742 70.479 188.389 70.8456 187.819 71.2394L187.803 71.249C187.628 71.3573 187.378 71.5109 187.167 71.5109C186.774 71.5109 186.692 70.8321 186.692 70.5605C186.685 70.3733 186.712 70.1784 186.739 69.984C186.763 69.8119 186.787 69.6401 186.787 69.4743C186.774 69.162 186.516 68.9583 186.231 68.9583C185.613 68.9712 185.617 69.8739 185.619 70.3382C185.619 70.364 185.62 70.3883 185.62 70.4112C185.633 71.3616 185.864 72.6379 187.045 72.6107C187.671 72.5943 188.126 72.2436 188.482 71.9699C188.713 71.7921 188.902 71.6467 189.068 71.6467C189.381 71.6331 189.638 73.3032 189.638 73.5476C189.652 74.0364 189.381 74.1586 188.946 74.1586C188.885 74.1604 188.811 74.1598 188.728 74.1592C188.178 74.155 187.237 74.148 187.249 74.7967C187.261 75.4899 188.245 75.4812 188.788 75.4763Z" fill="#3A3A84"/>
<path fill-rule="evenodd" clip-rule="evenodd" d="M258.346 72.6515C258.346 72.9502 258.278 73.0995 257.952 73.1131C257.287 73.1403 257.232 72.5428 257.219 72.0269C257.205 71.6258 257.212 71.2281 257.219 70.8321C257.226 70.4372 257.232 70.044 257.219 69.6508C257.205 69.3004 257.165 68.95 257.125 68.598V68.5976L257.125 68.597C257.084 68.24 257.042 67.8813 257.029 67.5191C257.029 67.2747 257.056 66.718 257.409 66.7045C257.653 66.7045 258.034 66.8402 258.047 67.1254C258.068 67.7321 258.115 68.332 258.163 68.9301L258.163 68.9312L258.163 68.9319C258.211 69.5245 258.258 70.1155 258.278 70.7099L258.346 72.6379V72.6515ZM223.499 68.8457L223.5 68.8457L223.5 68.8457L223.5 68.8456L223.5 68.8456L223.501 68.8456L223.501 68.8456C223.888 68.8033 224.275 68.761 224.66 68.7274L224.701 68.7545L224.715 68.7535C224.928 68.7395 225.434 68.7063 225.434 68.3879C225.434 68.225 225.284 68.0213 225.176 67.8991C224.959 67.6683 224.606 67.6411 224.32 67.6411C223.995 67.6547 223.642 67.7226 223.329 67.8177C222.349 68.0942 221.147 68.138 220.123 68.1753L219.881 68.1842H219.147C218.903 68.1707 218.672 68.1571 218.441 68.1028C218.363 68.0882 218.282 68.0666 218.2 68.0449C218.054 68.0061 217.907 67.967 217.776 67.967C217.6 67.9806 217.124 68.4286 217.124 68.5916C217.148 69.1135 218.498 69.1173 219.102 69.1189H219.102H219.102H219.103H219.103H219.104C219.144 69.1191 219.182 69.1192 219.215 69.1194C219.252 69.1197 219.284 69.1202 219.31 69.1211C219.817 69.1464 219.875 69.2664 220.068 69.6684C220.081 69.6972 220.096 69.7275 220.111 69.7592C220.451 70.4924 220.885 73.208 221.007 74.1041C221.075 74.6472 221.225 75.0681 221.822 75.0409C222.175 75.0274 222.175 74.6336 222.175 74.3621C222.137 73.3621 221.457 70.8852 221.118 69.6519L221.118 69.6517L221.118 69.6513L221.062 69.447C221.035 69.3927 221.021 69.3112 221.021 69.2569C221.007 69.0261 221.211 69.0261 221.388 69.0261C222.088 68.9998 222.795 68.9227 223.499 68.8457L223.499 68.8457ZM227.973 74.24C228.978 74.1993 229.982 73.9413 230.946 73.6698L230.933 73.6562C231.177 73.6019 231.693 73.3439 231.693 73.0316C231.681 72.8312 231.27 72.8458 231.064 72.8531C231.033 72.8542 231.007 72.8551 230.987 72.8551C230.799 72.8656 230.587 72.9162 230.388 72.9637L230.325 72.9786C230.287 72.9876 230.25 72.9963 230.213 73.0045C229.779 73.0859 229.344 73.1538 228.896 73.1946C228.832 73.1988 228.767 73.2044 228.701 73.2101C228.556 73.2225 228.407 73.2353 228.258 73.2353C227.946 73.2489 226.642 73.181 226.629 72.7465C226.624 72.6178 226.868 72.5384 227.196 72.4315C227.872 72.2114 228.906 71.8747 228.869 70.7506C228.842 70.0853 228.339 69.8273 227.742 69.8545C226.629 69.8952 225.936 70.6827 225.529 71.6467C225.461 71.8096 225.352 72.0269 225.149 72.0269C225.105 72.0289 225.056 72.0288 225.004 72.0288C224.696 72.0285 224.282 72.0282 224.293 72.4342C224.32 72.9637 224.999 72.9909 225.38 72.9773C225.895 73.792 227.05 74.2672 227.973 74.24ZM226.574 71.7146C226.561 71.4295 227.063 70.8999 227.403 70.8999C227.538 70.8999 227.891 70.9407 227.891 71.1172C227.905 71.3887 226.982 71.8096 226.724 71.8096C226.656 71.8096 226.574 71.7825 226.574 71.7146ZM236.758 73.6155C236.34 73.629 235.919 73.6558 235.497 73.6827C235.067 73.7101 234.636 73.7376 234.205 73.7513C233.485 73.7784 232.44 73.697 232.413 72.7601C232.358 71.2801 233.92 69.7866 235.359 69.7323C236.024 69.7051 236.825 69.9631 236.853 70.7506C236.853 71.1172 236.595 71.5924 236.187 71.606C235.657 71.6278 235.601 71.4238 235.549 71.2337C235.504 71.0689 235.462 70.9145 235.115 70.9271C234.517 70.9543 233.445 71.7825 233.472 72.4207C233.484 72.9022 234.745 72.8074 235.239 72.7702C235.302 72.7654 235.352 72.7616 235.386 72.7601C235.418 72.7601 235.466 72.7586 235.526 72.7562L235.626 72.7522C236.297 72.7246 237.927 72.6575 237.939 73.1131C237.961 73.6326 237.42 73.6167 237.003 73.6044C236.919 73.602 236.84 73.5996 236.771 73.6019L236.758 73.6155ZM241.836 73.3077C242.071 73.8777 242.313 74.4678 242.908 74.4437C243.316 74.4302 243.601 74.1993 243.587 73.792C243.58 73.6706 243.462 73.5747 243.34 73.4758C243.245 73.3977 243.146 73.3176 243.098 73.2217L243.066 73.1561C242.821 72.6517 242.594 72.1848 242.229 71.7554C241.849 71.2801 240.953 70.6963 240.315 70.7235C239.944 70.743 239.84 70.0612 239.76 69.54C239.729 69.336 239.701 69.1566 239.663 69.0534C239.541 68.7276 238.916 67.7635 238.509 67.7771C238.21 67.7907 238.034 68.0894 238.034 68.361C238.048 68.5239 238.088 68.5918 238.21 68.6868C238.862 69.1839 239.083 70.8583 239.23 71.9771C239.264 72.2335 239.293 72.4607 239.324 72.6379C239.392 72.9909 239.568 73.534 240.003 73.5204C240.329 73.5069 240.546 73.3032 240.546 72.9502L240.546 72.9233C240.545 72.7474 240.542 72.1084 240.695 72.1084C240.808 72.1084 241.033 72.2396 241.176 72.3229L241.217 72.3467C241.23 72.354 241.241 72.3606 241.252 72.3664C241.518 72.5325 241.675 72.9153 241.836 73.3077ZM249.724 73.7648C249.076 73.7886 248.897 73.0751 248.748 72.4807C248.641 72.0546 248.55 71.6897 248.312 71.701C248.039 71.7077 247.812 72.0405 247.579 72.3814C247.337 72.736 247.089 73.0993 246.778 73.1131C246.45 73.1252 246.405 72.7341 246.354 72.3009C246.291 71.764 246.22 71.1626 245.597 71.1851C245.294 71.1927 244.979 71.3478 244.698 71.486C244.474 71.5959 244.273 71.695 244.117 71.701C243.804 71.701 243.641 71.4838 243.628 71.1987C243.614 70.7099 245.325 70.0446 245.814 70.031C246.364 70.0143 246.658 70.3811 246.885 70.6639C247.028 70.8419 247.144 70.9867 247.28 70.9814C247.355 70.9814 247.446 70.8991 247.567 70.7901C247.796 70.583 248.131 70.2796 248.665 70.2618C249.276 70.2347 249.67 71.1715 249.846 71.6467L249.879 71.7397C250.006 72.0994 250.309 72.9591 250.322 73.181C250.322 73.4526 249.982 73.7648 249.724 73.7648ZM251.693 71.9585C251.72 72.868 252.344 73.4246 253.268 73.3974C254.91 73.3431 255.725 72.0535 255.67 70.5195C255.657 69.9222 255.453 69.2978 254.761 69.325C254.683 69.3314 254.612 69.3564 254.542 69.3808C254.465 69.4075 254.391 69.4336 254.313 69.4336C254.256 69.4399 254.201 69.4195 254.139 69.3959C254.068 69.3692 253.987 69.3385 253.878 69.3385C252.63 69.3793 251.652 70.7775 251.693 71.9585ZM252.887 71.6463C252.874 71.3205 253.159 70.6824 253.553 70.6689H253.566C253.702 70.6553 253.919 70.7367 253.919 70.9132C253.919 71.0187 253.879 71.144 253.836 71.2801C253.785 71.4418 253.729 71.6187 253.729 71.7956C253.729 71.8336 253.74 71.8695 253.753 71.9059L253.761 71.9284C253.779 71.9757 253.797 72.0245 253.797 72.0807C253.797 72.2571 253.525 72.2707 253.403 72.2707C253.105 72.2843 252.901 72.1485 252.887 71.8499V71.6463ZM259.907 71.6598C259.935 72.5693 260.559 73.1259 261.482 73.0987C263.125 73.0444 263.939 71.7548 263.885 70.2208C263.871 69.6235 263.668 68.9991 262.975 69.0262C262.898 69.0327 262.826 69.0577 262.756 69.0821C262.68 69.1088 262.606 69.1348 262.527 69.1348C262.47 69.1412 262.416 69.1208 262.353 69.0972C262.283 69.0705 262.201 69.0398 262.093 69.0398C260.844 69.0805 259.867 70.4788 259.907 71.6598ZM261.102 71.3475C261.088 71.0218 261.374 70.3837 261.767 70.3702H261.781C261.917 70.3566 262.134 70.438 262.134 70.6145C262.134 70.72 262.094 70.8453 262.051 70.9814C262 71.1431 261.944 71.32 261.944 71.4969C261.944 71.5428 261.96 71.5855 261.976 71.6297C261.979 71.6391 261.983 71.6485 261.986 71.6581C261.99 71.6673 261.993 71.6766 261.996 71.686C262.005 71.7161 262.012 71.7477 262.012 71.7819C262.012 71.9584 261.74 71.972 261.618 71.972C261.319 71.9856 261.116 71.8498 261.102 71.5512V71.3475ZM269.222 70.6827C269.235 71.1104 269.286 71.5381 269.337 71.9658C269.388 72.3935 269.439 72.8212 269.452 73.2489C269.479 74.1586 269.194 76.4532 267.986 76.4939C267.117 76.5211 266.112 75.9237 265.556 75.2991L265.551 75.2933C265.467 75.196 265.298 74.9982 265.298 74.8918C265.284 74.498 265.773 74.145 266.139 74.1314C266.52 74.1314 266.683 74.3622 266.818 74.6881C266.927 74.9597 267.334 75.3806 267.66 75.367C268.461 75.3411 268.34 73.3232 268.303 72.7069L268.298 72.6243C268.298 72.3256 268.298 71.5109 267.837 71.5381H267.429C266.642 71.5924 265.325 71.5381 265.284 70.4655C265.243 69.3114 266.75 68.7954 267.714 68.7683C268.244 68.7547 269.412 68.8226 269.439 69.5829C269.439 69.765 269.386 69.9315 269.332 70.1003L269.332 70.1006C269.274 70.2842 269.214 70.4706 269.222 70.6827ZM267.538 69.8137C267.361 69.8137 266.425 70.126 266.438 70.289C266.438 70.479 266.927 70.5334 267.063 70.5198C267.389 70.5198 267.823 70.3976 267.809 69.9767C267.809 69.8273 267.647 69.8137 267.538 69.8137ZM274.203 74.9074C274.227 74.9066 274.251 74.906 274.273 74.9054L274.245 74.8918C275.59 74.8375 276.038 74.1993 275.997 72.9502C275.977 72.3847 275.84 71.8466 275.704 71.3101C275.568 70.7774 275.433 70.2463 275.413 69.6916C275.412 69.646 275.411 69.5966 275.411 69.5448C275.406 69.1328 275.401 68.5676 274.87 68.5918C274.493 68.6035 274.413 68.8299 274.309 69.1201C274.293 69.1644 274.277 69.2103 274.259 69.2571C274.028 69.9088 273.675 70.289 273.105 70.6827L273.09 70.6923C272.927 70.8014 272.678 70.9678 272.467 70.9678C272.073 70.9814 271.978 70.3025 271.978 70.031C271.971 69.8337 271.995 69.6325 272.019 69.4336C272.039 69.2631 272.059 69.0942 272.059 68.9312C272.046 68.6325 271.788 68.4288 271.503 68.4288C270.872 68.4551 270.903 69.3982 270.918 69.8524L270.919 69.8952C270.96 70.8321 271.204 72.1084 272.385 72.0676C273.014 72.0428 273.466 71.6855 273.819 71.407C274.045 71.2282 274.23 71.0818 274.395 71.0765C274.707 71.0629 274.992 72.7329 274.992 72.9773C275.006 73.4797 274.734 73.5883 274.3 73.6019C274.244 73.6035 274.178 73.6036 274.105 73.6037C273.55 73.6046 272.579 73.6061 272.603 74.2536C272.629 74.9547 273.673 74.9233 274.203 74.9074Z" fill="#3A3A84"/>
<path fill-rule="evenodd" clip-rule="evenodd" d="M338.259 72.9773C338.178 73.2489 338.069 73.3575 337.784 73.3575C337.404 73.3575 337.146 72.9366 337.146 72.5971C337.146 72.3623 337.197 72.1275 337.245 71.9015L337.26 71.8344L337.268 71.7961C337.322 71.4295 337.363 71.0629 337.363 70.6963C337.363 70.3433 337.58 70.2211 337.92 70.2211C338.327 70.2211 338.517 70.3568 338.517 70.7913C338.517 71.2122 338.395 72.6243 338.273 72.9773H338.259ZM337.974 68.8226C337.512 68.8226 337.322 68.4831 337.322 68.0622C337.322 67.6142 337.349 67.0846 337.893 67.0846C338.123 67.0846 338.544 67.1661 338.544 67.4784C338.544 67.7228 338.259 68.809 337.974 68.809V68.8226ZM301.409 73.4116C302.319 73.4116 302.713 73.0993 303.337 72.4611C303.826 71.9588 303.908 71.0219 303.908 70.343C303.908 70.0036 303.908 69.6641 303.867 69.3247C303.799 68.8087 302.971 68.2249 302.482 68.2249C301.885 68.2249 301.206 68.9038 300.812 69.3111C300.133 70.0172 299.739 70.6825 299.739 71.7008C299.739 72.7327 300.377 73.4116 301.409 73.4116ZM300.771 71.6193C300.771 70.9269 301.518 69.4605 302.319 69.4605V69.4469C302.835 69.4469 302.998 69.6641 302.998 70.2072C302.998 70.7639 302.658 72.2439 301.939 72.2439C301.896 72.2439 301.853 72.2443 301.81 72.2448H301.809H301.808C301.31 72.2499 300.771 72.2554 300.771 71.6193ZM307.613 73.4867C307.825 73.5541 308.105 73.6426 308.483 73.6426V73.6562C309.556 73.6698 310.126 72.3528 310.126 71.443C310.14 70.2754 309.067 70.0446 308.117 70.0446C307.316 70.0446 306.732 70.3025 306.039 70.6148C305.713 70.7506 305.551 70.9678 305.551 71.3344C305.551 71.4838 305.578 71.6196 305.618 71.7689C305.795 72.3392 305.904 74.3894 305.904 75.0547C305.89 75.3806 305.985 76.2903 306.474 76.2903C306.868 76.2903 307.193 75.8015 307.193 75.4349C307.193 75.1955 307.18 74.9596 307.166 74.7255V74.7252V74.7249V74.7246V74.7243V74.724V74.7237V74.7234C307.153 74.4933 307.139 74.2648 307.139 74.0364L307.139 74.0126C307.138 73.8676 307.135 73.4118 307.288 73.4118C307.376 73.4118 307.482 73.4453 307.613 73.4867ZM306.922 71.7418C306.922 71.1036 308.008 71.1036 308.443 71.1036C308.863 71.1036 309.081 71.1851 309.081 71.6603C309.081 72.312 308.701 72.57 308.076 72.57C307.492 72.57 306.922 72.4342 306.922 71.7418ZM317.472 73.1402C316.494 73.3711 315.476 73.6019 314.471 73.5883C313.548 73.5883 312.407 73.0588 311.932 72.2305C311.552 72.2305 310.873 72.1762 310.873 71.6467C310.873 71.2351 311.301 71.2513 311.61 71.263C311.657 71.2648 311.702 71.2665 311.742 71.2665C311.946 71.2665 312.068 71.0629 312.136 70.8999C312.584 69.9631 313.303 69.1891 314.417 69.1891C315.014 69.1891 315.503 69.4743 315.503 70.126C315.503 71.2502 314.451 71.5499 313.763 71.7459C313.429 71.8411 313.181 71.9117 313.181 72.0404C313.181 72.4749 314.471 72.5971 314.797 72.5971H315.435C315.883 72.57 316.318 72.5292 316.752 72.4613C316.808 72.452 316.867 72.4413 316.927 72.4302L316.928 72.4302C317.131 72.3931 317.351 72.3527 317.54 72.3527C317.552 72.3527 317.567 72.3525 317.584 72.3523C317.774 72.35 318.232 72.3444 318.232 72.5564C318.232 72.8687 317.689 73.1131 317.445 73.1538L317.472 73.1402ZM314.037 70.2346C313.697 70.2346 313.181 70.7234 313.181 71.0221C313.181 71.09 313.249 71.1307 313.331 71.1307C313.589 71.1307 314.525 70.7506 314.525 70.479C314.525 70.3025 314.172 70.2482 314.05 70.2482L314.037 70.2346ZM320.646 72.483C320.636 71.8975 320.63 71.478 321.029 70.9268V70.9132C321.095 70.8067 321.406 70.6253 321.706 70.4503C322.018 70.2683 322.318 70.0934 322.318 70.0173C322.318 69.7322 321.925 69.4064 321.707 69.4064C321.327 69.3985 320.947 69.7419 320.629 70.0293C320.402 70.2344 320.206 70.4109 320.065 70.4109C319.969 70.4109 319.907 70.2765 319.855 70.1637L319.855 70.163C319.845 70.142 319.836 70.1217 319.827 70.1032C319.816 70.0802 319.804 70.0599 319.793 70.0444C319.745 69.984 319.709 69.933 319.68 69.8902L319.679 69.8898C319.575 69.7406 319.541 69.6915 319.278 69.6915C319.033 69.6915 318.87 69.8136 318.87 70.058C318.865 70.3717 319.003 70.4915 319.163 70.6302C319.377 70.8155 319.63 71.0346 319.63 71.7956C319.63 71.967 319.592 72.128 319.555 72.2874C319.518 72.4436 319.481 72.5981 319.481 72.7594C319.481 73.0987 319.658 73.506 320.051 73.506C320.526 73.506 320.649 73.2073 320.649 72.7729C320.649 72.6714 320.647 72.5751 320.646 72.483ZM328.307 73.9549C327.845 73.9549 327.383 73.8327 327.044 73.4933C327.001 73.4575 326.875 73.2784 326.762 73.117C326.66 72.9721 326.568 72.8415 326.555 72.8415C326.542 72.8415 326.468 72.8996 326.387 72.9635C326.296 73.0344 326.197 73.1124 326.161 73.1267C325.795 73.3439 325.333 73.3846 324.912 73.3846C323.989 73.3846 323.324 72.9366 323.337 71.959C323.337 71.443 323.731 70.1667 324.26 69.9767C324.45 69.9055 324.63 69.8229 324.806 69.7414C325.237 69.5431 325.651 69.3521 326.161 69.3521C326.487 69.3521 326.99 69.5014 327.18 69.7594C327.546 69.8273 327.899 69.9495 327.899 70.3976C327.899 70.6402 327.852 70.8862 327.805 71.1339L327.805 71.1341C327.757 71.3853 327.709 71.6382 327.709 71.8911C327.709 72.8172 328.155 72.8958 328.536 72.9629C328.819 73.0128 329.067 73.0564 329.067 73.4389C329.067 73.8327 328.646 73.9549 328.307 73.9549ZM326.243 71.3073C326.176 71.3073 326.096 71.3531 326.007 71.404C325.897 71.4672 325.773 71.5381 325.645 71.5381C325.496 71.5381 325.279 71.3887 325.279 71.2258C325.279 71.1015 325.449 70.9993 325.625 70.8934C325.815 70.7794 326.012 70.661 326.012 70.5062C326.012 70.4247 325.903 70.3976 325.849 70.3976C325.252 70.3976 324.423 71.253 324.423 71.8368C324.423 72.2034 324.708 72.3256 325.034 72.3256C325.401 72.3256 326.474 72.0405 326.474 71.5652C326.474 71.3887 326.433 71.3073 326.243 71.3073ZM334.131 72.5971C333.629 72.5971 333.262 72.2441 333.262 71.7282L333.276 71.7146C333.276 71.1851 333.999 71.1375 334.722 71.09C335.445 71.0425 336.168 70.995 336.168 70.4654C336.168 70.2618 335.706 70.2618 335.571 70.2618C335.285 70.2618 334.997 70.2821 334.708 70.3025C334.42 70.3229 334.131 70.3432 333.846 70.3432C333.656 70.3432 333.276 70.3297 333.276 70.0717C333.276 69.9545 333.335 69.8339 333.394 69.715C333.451 69.5998 333.507 69.4862 333.507 69.3792C333.507 69.0805 333.127 68.7954 332.855 68.7954C332.488 68.7818 332.393 69.4743 332.393 69.7458C332.385 69.8167 332.387 69.8817 332.39 69.9523V69.9527L332.392 69.9948C332.393 70.0194 332.393 70.0449 332.393 70.0717C332.364 70.7544 331.496 70.7767 330.695 70.7972C329.998 70.8151 329.352 70.8317 329.352 71.2801C329.352 71.5245 329.569 71.8368 329.814 71.8368C329.882 71.8368 329.922 71.8232 329.963 71.8096C330.18 71.7282 331.674 71.5924 331.945 71.5924C332.17 71.5996 332.252 71.9128 332.345 72.2712C332.426 72.5841 332.517 72.9314 332.719 73.1402C333.086 73.534 333.643 73.6698 334.159 73.6698C334.498 73.6698 335.801 73.2353 335.801 72.8415C335.801 72.4885 335.53 72.3391 335.231 72.3391C335.043 72.3391 334.868 72.4025 334.691 72.4664C334.511 72.5315 334.33 72.5971 334.131 72.5971ZM339.956 72.2436C339.956 73.1667 340.554 73.7504 341.477 73.7504C343.133 73.7504 344.002 72.5015 344.002 70.9676C344.002 70.3703 343.825 69.7458 343.133 69.7458C343.05 69.7458 342.973 69.7671 342.899 69.7879C342.828 69.8078 342.758 69.8273 342.685 69.8273C342.624 69.8273 342.571 69.8026 342.513 69.7754C342.442 69.7421 342.363 69.7051 342.25 69.7051C341.002 69.7051 339.956 71.0626 339.956 72.2436ZM341.164 71.9857C341.164 71.6599 341.463 71.0354 341.857 71.0354C342.006 71.0354 342.21 71.1169 342.21 71.2934C342.21 71.3988 342.164 71.5213 342.115 71.6543C342.057 71.8123 341.993 71.9852 341.993 72.1622C341.993 72.2081 342.005 72.2508 342.018 72.295C342.032 72.3423 342.047 72.3911 342.047 72.4472C342.047 72.6237 341.775 72.6237 341.653 72.6237C341.355 72.6237 341.164 72.488 341.164 72.1893V71.9857ZM350.587 74.0092C349.938 74.0092 349.788 73.2896 349.662 72.6893C349.572 72.2597 349.495 71.8911 349.257 71.8911C348.985 71.8911 348.745 72.2117 348.5 72.5397C348.244 72.8834 347.981 73.2353 347.668 73.2353C347.333 73.2353 347.301 72.8414 347.267 72.4059C347.224 71.8713 347.176 71.274 346.555 71.2665C346.251 71.2665 345.927 71.4105 345.64 71.5377C345.414 71.6382 345.211 71.7282 345.061 71.7282C344.749 71.7282 344.6 71.4973 344.6 71.1986C344.6 70.7098 346.351 70.1124 346.826 70.1124C347.373 70.1124 347.652 70.4862 347.869 70.7778C348.008 70.9643 348.123 71.1172 348.266 71.1172C348.34 71.1172 348.432 71.04 348.555 70.9383C348.792 70.7412 349.14 70.4519 349.678 70.4519C350.289 70.4519 350.642 71.4023 350.805 71.8775C350.819 71.9242 350.84 71.9933 350.866 72.077C350.993 72.4808 351.225 73.2253 351.225 73.4389C351.225 73.7105 350.859 74.0092 350.601 74.0092H350.587ZM355.406 71.4385C355.282 71.3626 355.19 71.3061 355.19 71.2526V71.239C355.19 71.1481 355.322 71.0922 355.498 71.0178C355.848 70.87 356.371 70.6492 356.371 69.9358C356.371 69.3928 355.407 69.3385 355.027 69.3385C354.403 69.3249 352.828 70.0308 352.828 70.7639C352.828 71.2254 353.317 71.8227 353.71 72.0535C353.79 72.1036 353.969 72.1501 354.162 72.2003C354.492 72.2861 354.864 72.3831 354.864 72.5286C354.864 72.6915 354.172 72.9358 354.022 72.9358C353.853 72.9358 353.686 72.8849 353.52 72.834C353.354 72.7831 353.188 72.7322 353.018 72.7322C352.787 72.7322 352.583 72.8001 352.583 73.0852C352.583 73.6282 353.412 74.0626 353.873 74.0626C354.593 74.0626 356.045 73.0444 356.045 72.2843C356.045 71.8287 355.66 71.5933 355.406 71.4385Z" fill="#3A3A84"/>
<path d="M110.44 2.99829H88.3767L77.3517 22.102L88.3767 41.2193H110.44L121.479 22.102L110.44 2.99829Z" fill="#8080C2"/>
<path d="M89.2274 22.1055L94.3181 13.2846H104.506L109.603 22.1055L104.506 30.933H94.3183L89.2274 22.1055Z" stroke="#F5F5F5" stroke-width="1.5"/>
<path d="M329.067 275.632H397.104" stroke="#8080C2" stroke-width="1.5"/>
<path d="M329.067 315.327H397.104" stroke="#8080C2" stroke-width="1.5"/>
<path d="M329.067 335.175H397.104" stroke="#8080C2" stroke-width="1.5"/>
<path d="M329.067 295.479H378.697" stroke="#8080C2" stroke-width="1.5"/>
<path d="M386.959 295.479H415.297" stroke="#8080C2" stroke-width="1.5"/>
<path d="M290.483 255.784H358.521" stroke="#8080C2" stroke-width="1.5"/>
<path d="M366.303 255.784H416.235" stroke="#8080C2" stroke-width="1.5"/>
<rect x="421.397" y="149.739" width="52.084" height="23.6716" fill="#8080C2"/>
<path d="M286.352 250.475L281.012 256.443L286.352 260.527" stroke="#8080C2" stroke-width="1.5"/>
<path d="M321.54 290.454L316.2 296.422L321.54 300.505" stroke="#8080C2" stroke-width="1.5"/>
<path d="M17.2417 52.0066H73.7978" stroke="#8080C2" stroke-width="1.5"/>
<path d="M5.76013 72.5786H55.3905" stroke="#8080C2" stroke-width="1.5"/>
<path d="M63.6527 72.5786H91.99" stroke="#8080C2" stroke-width="1.5"/>
<path d="M421.397 260.81L426.488 255.726L421.397 250.758" stroke="#8080C2" stroke-width="1.5"/>
<path d="M405.55 340.2L410.641 335.117L405.55 330.149" stroke="#8080C2" stroke-width="1.5"/>
<path d="M12.6699 46.5097L7.33008 52.4778L12.6699 56.5612" stroke="#8080C2" stroke-width="1.5"/>
</g>
<defs>
<linearGradient id="paint0_linear_105_123" x1="106.109" y1="208.821" x2="141.75" y2="208.821" gradientUnits="userSpaceOnUse">
<stop stop-color="#FF6C37"/>
<stop offset="1" stop-color="#FFB400"/>
</linearGradient>
<linearGradient id="paint1_linear_105_123" x1="166.122" y1="93.8461" x2="166.122" y2="115.244" gradientUnits="userSpaceOnUse">
<stop stop-color="#FF6C37"/>
<stop offset="1" stop-color="#FFB400"/>
</linearGradient>
<linearGradient id="paint2_linear_105_123" x1="249.475" y1="99.0463" x2="249.475" y2="119.331" gradientUnits="userSpaceOnUse">
<stop stop-color="#FF6C37"/>
<stop offset="1" stop-color="#FFB400"/>
</linearGradient>
<linearGradient id="paint3_linear_105_123" x1="333.486" y1="98.2072" x2="333.486" y2="122.913" gradientUnits="userSpaceOnUse">
<stop stop-color="#FF6C37"/>
<stop offset="1" stop-color="#FFB400"/>
</linearGradient>
<clipPath id="clip0_105_123">
<rect width="475.99" height="395" fill="white" transform="translate(0 0.5)"/>
</clipPath>
</defs>
</svg>
