<?xml version="1.0" encoding="UTF-8"?>
<svg xmlns="http://www.w3.org/2000/svg" xmlns:xlink="http://www.w3.org/1999/xlink" width="1097px" height="324px" viewBox="0 0 1097 324">
    
    <title>Combined Shape</title>
    <desc>Created with Sketch.</desc>
    <g id="Page-1" stroke="none" stroke-width="1" fill="none" fill-rule="evenodd">
        <path d="M162.8,0.7 C252.4,0.7 325.2,73.2 325.2,162.4 C325.2,251.5 252.3,324 162.8,324 C73.3,324 0.5,251.5 0.5,162.3 C0.5,73.2 73.3,0.7 162.8,0.7 Z M162.9,15.2 C81,15.2 14.7,81.5 14.799887,163.4 C14.799887,245.2 81.1,311.5 162.9,311.5 C244.7,311.5 311,245.1 311,163.3 C311,81.5 244.7,15.2 162.9,15.2 Z M101.6,58.8 L163,154.9 L225,59.2 C260.6,80.4 284.5,119.2 284.5,163.7 C284.5,210.8 257.8,251.6 218.6,271.8 L218.6,271.8 L208.3,232.4 C230.1,219.8 244.9,195.4 244.9,167.3 C244.9,151.5 240.2,136.7 232.1,124.7 L232.1,124.7 L178.7,204.3 L146.4,204.3 L93,124.7 C84.9,136.7 80.2,151.4 80.2,167.3 C80.2,197.4 97.2,223.4 121.7,234.9 L121.7,234.9 L111.6,273.9 C70.1,254.6 41.4,212.5 41.4,163.7 C41.4,119 65.6,79.9 101.6,58.8 L101.6,58.8 Z M545.7,133.5 L545.7,192.8 C545.7,208 554.4,214.5 565.3,214.5 C576.2,214.5 585.4,207.8 585.4,192.8 L585.4,192.8 L585.4,133.6 L605,133.6 L605,230.9 L585.8,230.9 L585.8,221.1 C579.1,228.4 569.7,232 559.9,232 C549.9,232 541.7,228.7 535.9,223.2 C528.4,215.9 526.1,206.7 526.1,195.7 L526.1,195.7 L526.1,133.5 L545.7,133.5 Z M709.6,132.4 C735.7,132.4 750.8,151.6 750.700494,179.3 L750.700494,179.3 L750.700494,187.9 L687.6,187.9 C687.6,204.6 696.5,215.1 712.4,215.1 C723.3,215.1 729.1,212 736,205.1 L736,205.1 L748.6,216.8 C738.7,226.8 729.3,232 712.2,232 C687.8,232 668.4,219.1 668.4,182.1 C668.4,150.6 684.7,132.4 709.6,132.4 Z M910.2,132.4 C923.4,132.4 933,137.4 939.4,143.9 C948.6,153.5 950.9,165.8 950.9,182.1 C950.9,198.6 948.6,210.9 939.4,220.5 C933,227 923.4,232 910.2,232 C896.9,232 887.5,227 881.2,220.5 C872,210.9 869.7,198.6 869.7,182.1 C869.7,165.8 872,153.5 881.2,143.9 C887.6,137.4 897,132.4 910.2,132.4 Z M811.3,93 C829.4,93 842,97.7 853.7,108.5 L853.7,108.5 L840.5,121.5 C832.1,113.5 822.3,111 810.8,111 C794.7,111 785.9,120.2 785.9,132.3 C785.9,137.3 787.5,141.7 791.1,145 C794.5,148 800.1,150.3 806.4,151.3 L806.4,151.3 L821.9,153.6 C834.5,155.5 841.6,158.6 847.4,163.8 C854.9,170.4 858.5,180.2 858.6,191.8 C858.6,216.9 838.1,231.9 809.5,231.9 C788.9,231.9 774.1,227.1 761.1,213.9 L761.1,213.9 L774.9,200.3 C784.9,210.2 795.8,213.3 809.8,213.3 C827.6,213.3 838,205.6 838,192.4 C838,186.5 836.2,181.4 832.6,178.2 C829.1,174.9 825.7,173.5 817.6,172.4 L817.6,172.4 L801.5,170.1 C790.4,168.6 781.5,164.8 775.6,159.2 C768.9,152.9 765.6,144.2 765.6,133.1 C765.6,109.3 782.9,93 811.3,93 Z M1009.5,93.2 L1009.5,110 L1000.9,110 C993.6,110 990.2,114.2 990.2,121.3 L990.2,121.3 L990.2,135.3 L1009.6,135.3 L1009.6,150.3 L990.2,150.3 L990.2,230.9 L970.6,230.9 L970.6,150.3 L959.5,150.3 L959.5,135.3 L970.6,135.3 L970.6,120.3 C970.6,106.3 979.1,93.2 997.2,93.2 L997.2,93.2 L1009.5,93.2 Z M407.8,94.2 L447.7,179.2 L486.8,94.2 L507.5,94.2 L507.5,230.8 L486.8,230.8 L486.8,139.5 L455.4,206.1 L440,206.1 L407.8,139.5 L407.8,230.8 L387,230.8 L387,94.2 L407.8,94.2 Z M643.3,94.2 L643.3,202.8 C643.3,210.3 646,214.1 653.9,214.1 L653.9,214.1 L662.5,214.1 L662.5,230.8 L650.4,230.8 C631.8,230.8 623.7,218.3 623.7,203.9 L623.7,203.9 L623.7,94.2 L643.3,94.2 Z M1052.4,105.7 L1052.4,135.2 L1071.2,135.2 L1071.2,150.2 L1052.4,150.2 L1052.4,202.8 C1052.4,209.9 1055.8,214.1 1063.1,214.1 L1063.1,214.1 L1071.2,214.1 L1071.2,230.8 L1059.5,230.8 C1041.2,230.8 1032.8,217.7 1032.8,203.7 L1032.8,203.7 L1032.8,150.2 L1021.7,150.2 L1021.7,135.2 L1032.8,135.2 L1032.8,105.7 L1052.4,105.7 Z M910.2,149.8 C904.4,149.8 899.6,151.8 896,155.4 C890.1,161.4 889.3,171.5 889.3,182.1 L889.300605,182.629649 C889.324806,193.038806 890.1,202.998333 896,208.8 C899.6,212.4 904.4,214.5 910.2,214.5 C916,214.5 921,212.4 924.6,208.8 C930.5,202.8 931.3,192.6 931.3,182.1 C931.3,171.5 930.5,161.3 924.6,155.4 C920.9,151.7 915.9,149.8 910.2,149.8 Z M709.6,148.7 C700.4,148.7 693.3,153.7 690.2,161 C688.3,165.4 687.9,168.3 687.7,174.2 L687.7,174.2 L731.5,174.2 C731.3,168.3 730.7,165.4 728.8,161 C725.7,153.7 718.8,148.7 709.6,148.7 Z M1085.7,114.5 C1087.2,114.5 1088.5,114.8 1089.8,115.3 C1091,115.8 1092.1,116.6 1093.1,117.5 C1094.1,118.4 1094.8,119.5 1095.4,120.8 C1096,122.1 1096.2,123.4 1096.2,124.9 C1096.2,126.4 1096,127.8 1095.4,129.1 C1094.8,130.3 1094.1,131.5 1093.1,132.4 C1092.2,133.3 1091.1,134.1 1089.8,134.6 C1088.5,135.1 1087.1,135.4 1085.7,135.4 C1084.2,135.4 1082.9,135.1 1081.6,134.6 C1080.3,134.1 1079.2,133.3 1078.2,132.4 C1077.2,131.5 1076.5,130.4 1075.9,129.1 C1075.4,127.8 1075.1,126.4 1075.1,124.9 C1075.1,123.4 1075.3,122.1 1075.9,120.8 C1076.5,119.5 1077.2,118.4 1078.2,117.5 C1079.2,116.6 1080.3,115.8 1081.6,115.3 C1082.9,114.8 1084.3,114.5 1085.7,114.5 Z M1085.8,116 C1084.6,116 1083.5,116.2 1082.4,116.7 C1081.4,117.2 1080.5,117.8 1079.7,118.6 C1078.9,119.4 1078.3,120.3 1077.9,121.4 C1077.4,122.5 1077.2,123.6 1077.2,124.9 C1077.2,126.2 1077.5,127.4 1077.9,128.5 C1078.3,129.5 1078.9,130.5 1079.7,131.3 C1080.4,132.1 1081.3,132.7 1082.4,133.2 C1083.4,133.7 1084.6,133.9 1085.8,133.9 C1087,133.9 1088.2,133.7 1089.2,133.2 C1090.2,132.7 1091.1,132.1 1091.9,131.3 C1092.7,130.5 1093.3,129.6 1093.7,128.5 C1094.1,127.4 1094.3,126.2 1094.4,124.9 C1094.4,123.7 1094.1,122.5 1093.7,121.4 C1093.3,120.3 1092.7,119.4 1091.9,118.6 C1091.2,117.8 1090.2,117.2 1089.2,116.7 C1088.1,116.2 1087,116 1085.8,116 Z M1086.3,118.9 C1087.7,118.9 1088.8,119.2 1089.5,119.8 C1090.3,120.3 1090.6,121.2 1090.6,122.4 C1090.6,123.5 1090.3,124.3 1089.7,124.8 C1089.1,125.3 1088.4,125.6 1087.3,125.8 L1087.3,125.8 L1090.8,131.2 L1088.8,131.2 L1085.5,125.9 L1083.5,125.9 L1083.5,131.2 L1081.6,131.2 L1081.6,118.9 Z M1086,120.4 L1083.5,120.4 L1083.5,124.3 L1086.7,124.3 C1087.1,124.3 1087.4,124.2 1087.7,124.1 C1088,124 1088.2,123.8 1088.4,123.5 C1088.6,123.3 1088.7,122.9 1088.7,122.4 C1088.7,122 1088.7,121.6 1088.5,121.4 C1088.4,121.1 1088.2,120.9 1087.9,120.8 C1087.6,120.6 1087.3,120.5 1087,120.5 C1086.6,120.4 1086.3,120.4 1086,120.4 L1086,120.4 Z" id="Combined-Shape" fill="#00A1DF" fill-rule="nonzero"/>
    </g>
</svg>
